<svg width="1440" height="3600" viewBox="0 0 1440 3600" fill="none" xmlns="http://www.w3.org/2000/svg">
<rect width="1440" height="3600" fill="#1E1E1E"/>
<mask id="mask0_0_1" style="mask-type:alpha" maskUnits="userSpaceOnUse" x="0" y="0" width="1440" height="3600">
<rect width="1440" height="3600" fill="#240F4A"/>
</mask>
<g mask="url(#mask0_0_1)">
<g filter="url(#filter0_f_0_1)">
<path fill-rule="evenodd" clip-rule="evenodd" d="M263.742 -66.0459C390.915 -49.7209 526.243 -104.711 630.695 -18.449C750.235 80.2727 825.552 239.903 840.181 410.007C856.338 597.868 836.21 812.362 712.618 934.115C593.32 1051.64 417.43 1009.69 263.742 977.87C141.575 952.573 35.9896 880.759 -49.9038 776.219C-133.612 674.339 -180.647 548.792 -202.833 410.007C-231.935 227.968 -313.293 -2.44251 -193.865 -124.296C-73.7533 -246.848 105.186 -86.3992 263.742 -66.0459Z" fill="#700CCF"/>
<path fill-rule="evenodd" clip-rule="evenodd" d="M310.511 943.223C416.476 909.73 558.898 890.649 623.049 999.043C687.445 1107.85 565.312 1246.86 569.632 1381.06C574.362 1528.02 716.589 1672.97 648.648 1794.36C582.014 1913.42 426.44 1871.03 310.511 1844.03C217.277 1822.32 152.932 1737.19 80.6032 1662.07C-2.68328 1575.58 -147.312 1513.83 -135.296 1381.06C-123.105 1246.35 39.9692 1240.91 126.402 1156.02C194.849 1088.8 225.502 970.092 310.511 943.223Z" fill="#BA2396"/>
<path fill-rule="evenodd" clip-rule="evenodd" d="M1333.73 845.279C1450.42 856.394 1572.89 872.56 1662.14 945.182C1747.19 1014.39 1784.46 1122.95 1804.07 1227.99C1820.75 1317.38 1791.99 1405.31 1764.23 1492.15C1740.18 1567.37 1708.75 1639.26 1653.85 1697.89C1599.55 1755.88 1532.35 1802.81 1453.85 1823.62C1376.01 1844.25 1297.11 1807.02 1216.64 1813.79C1071.72 1826 872.951 1996.13 794.54 1879.13C709.67 1752.49 1014.22 1628.8 992.837 1479.85C971.708 1332.68 698.237 1300.83 690.22 1152.48C683.31 1024.6 840.367 935.6 960.331 878.332C1074.45 823.856 1206.78 833.186 1333.73 845.279Z" fill="#6A3C96"/>
<path fill-rule="evenodd" clip-rule="evenodd" d="M1218.92 1880.52C1294.32 1889.54 1373.45 1902.65 1431.11 1961.53C1486.06 2017.65 1510.15 2105.68 1522.81 2190.86C1533.59 2263.35 1515.01 2334.64 1497.07 2405.07C1481.54 2466.06 1461.23 2524.35 1425.76 2571.89C1390.67 2618.92 1347.25 2656.97 1296.53 2673.84C1246.24 2690.58 1195.26 2660.39 1143.27 2665.88C1049.63 2675.77 921.207 2813.73 870.544 2718.86C815.709 2616.17 1012.48 2515.87 998.667 2395.09C985.015 2275.75 808.322 2249.93 803.142 2129.63C798.677 2025.93 900.154 1953.76 977.664 1907.33C1051.4 1863.15 1136.9 1870.72 1218.92 1880.52Z" fill="#6A3C96"/>
<path fill-rule="evenodd" clip-rule="evenodd" d="M1381.66 -145.724C1486.12 -178.601 1602.6 -279.832 1694.25 -209.508C1785.51 -139.481 1756.88 36.4542 1785.9 164.473C1809.79 269.837 1845.76 366.953 1849.72 476.276C1854.4 605.35 1874.12 750.258 1810.86 852.956C1747.21 956.285 1631.28 993.411 1526.52 1000.94C1432.57 1007.69 1347.39 946.676 1264.16 892.227C1194.84 846.881 1142.64 778.507 1085.29 712.298C1020.47 637.454 925.638 585.468 905.806 478.489C885.844 370.816 938.72 263.573 984.54 168.818C1026.69 81.6426 1087.57 14.4253 1156.68 -40.3165C1225.62 -94.9236 1302.34 -120.76 1381.66 -145.724Z" fill="#A0356E"/>
<path fill-rule="evenodd" clip-rule="evenodd" d="M315.761 1991.62C419.738 2000.19 530.383 1971.3 615.784 2016.62C713.52 2068.49 775.099 2152.36 787.06 2241.72C800.27 2340.42 783.813 2453.11 682.764 2517.08C585.226 2578.83 441.417 2556.79 315.761 2540.07C215.877 2526.78 129.55 2489.05 59.3228 2434.13C-9.11755 2380.6 -47.5731 2314.64 -65.7132 2241.72C-89.507 2146.08 -156.025 2025.03 -58.3809 1961.01C39.8233 1896.63 186.125 1980.92 315.761 1991.62Z" fill="#700CCF"/>
</g>
</g>
<defs>
<filter id="filter0_f_0_1" x="-757" y="-733.834" width="3113.31" height="3985.83" filterUnits="userSpaceOnUse" color-interpolation-filters="sRGB">
<feFlood flood-opacity="0" result="BackgroundImageFix"/>
<feBlend mode="normal" in="SourceGraphic" in2="BackgroundImageFix" result="shape"/>
<feGaussianBlur stdDeviation="250" result="effect1_foregroundBlur_0_1"/>
</filter>
</defs>
</svg>
